<svg xmlns="http://www.w3.org/2000/svg" width="167" height="48" fill="none"><g clip-path="url(#a)"><path fill="#6FBF6B" d="M13.858 47.787a.103.103 0 0 0 .03.065l18.915-14.937 14.919-18.897s-36.346-3.862-33.864 33.769Z"/><path fill="#009959" d="M47.722 14.016 13.888 47.85c.017.017.04.028.065.03 37.631 2.482 33.769-33.864 33.769-33.864Z"/><path fill="#6FBF6B" d="M13.82 47.823c.02.017.044.026.068.026L16.7 23.91 13.888 0s-28.432 22.97-.068 47.823Z"/><path fill="#009959" d="M13.888 0v47.849a.102.102 0 0 0 .067-.026C42.32 22.97 13.888 0 13.888 0Z"/></g><g fill="#000" clip-path="url(#b)"><path d="m160.536 23.921.009-12.433a.05.05 0 0 1 .014-.036.05.05 0 0 1 .035-.014l4.59.003a.08.08 0 0 1 .056.023.078.078 0 0 1 .023.056l-.022 31.116a.086.086 0 0 1-.087.085l-4.141-.002a.073.073 0 0 1-.049-.02.072.072 0 0 1-.022-.048l-.149-2.384a.069.069 0 0 0-.012-.034.067.067 0 0 0-.03-.021.062.062 0 0 0-.067.017c-1.658 1.787-3.662 2.733-6.012 2.837-1.987.089-3.788-.39-5.401-1.434-3.592-2.326-5.125-6.66-4.685-10.843.536-5.084 4.16-9.447 9.583-9.495 2.421-.021 4.526.862 6.316 2.648a.027.027 0 0 0 .015.009c.006 0 .012 0 .018-.002a.03.03 0 0 0 .013-.011.033.033 0 0 0 .005-.017Zm.005 8.234c-.002-1.224.089-1.819-.22-2.661-1.841-5.018-8.387-5.31-10.529-.378a7.572 7.572 0 0 0-.617 3.066 7.567 7.567 0 0 0 .632 3.066c2.166 4.92 8.711 4.596 10.527-.43.305-.844.211-1.44.207-2.663Zm-34.969-8.193c1.974-2.071 5.011-2.94 7.823-2.661 4.2.417 6.689 3.486 6.701 7.607.009 3.075.011 7.625.006 13.65a.089.089 0 0 1-.09.09h-4.58a.134.134 0 0 1-.133-.132c.003-7.263.005-11.507.004-12.734 0-1.833-.642-3.334-2.412-3.968-2.547-.91-6.269.208-7.069 3.055-.101.359-.145 1.22-.132 2.587.01 1.179.012 4.893.003 11.142a.06.06 0 0 1-.003.02.077.077 0 0 1-.011.015.047.047 0 0 1-.017.011.048.048 0 0 1-.019.004h-4.673a.072.072 0 0 1-.051-.021.072.072 0 0 1-.022-.051v-20.84a.06.06 0 0 1 .019-.044.062.062 0 0 1 .044-.019h4.195a.114.114 0 0 1 .114.104l.194 2.147a.058.058 0 0 0 .013.033c.007.01.017.017.029.021a.06.06 0 0 0 .035.002.068.068 0 0 0 .032-.018Zm-23.765 9.831c.269 2.609 1.751 4.752 4.448 5.233 1.803.32 3.468.038 4.996-.847a4.064 4.064 0 0 0 1.794-2.088.21.21 0 0 1 .198-.135h3.685a.07.07 0 0 1 .054.025.085.085 0 0 1 .014.027c.003.01.003.02.002.03-.851 5.152-5.933 7.419-10.673 6.989-4.498-.409-7.903-3.591-8.883-7.94-.79-3.515-.193-7.509 2.156-10.34 2.239-2.7 5.672-3.855 9.136-3.425 6.21.771 9.089 6.479 8.393 12.234a.182.182 0 0 1-.181.16h-15.069a.069.069 0 0 0-.028.006.076.076 0 0 0-.024.017.08.08 0 0 0-.015.025.072.072 0 0 0-.003.03Zm10.951-3.694c-.179-1.66-.966-3.326-2.434-4.183-.947-.554-1.996-.806-3.147-.758-2.425.104-4.084 1.224-4.977 3.36-.22.531-.304 1-.456 1.529a.09.09 0 0 0 .014.077.088.088 0 0 0 .07.036h10.876a.055.055 0 0 0 .041-.018.05.05 0 0 0 .011-.02.058.058 0 0 0 .002-.023Zm-17.702 8.568a.066.066 0 0 1 .05.015.059.059 0 0 1 .02.046v3.885a.069.069 0 0 1-.015.044.072.072 0 0 1-.04.025c-1.583.341-3.13.394-4.643.156-2.864-.452-4.664-2.347-5.025-5.206a15.069 15.069 0 0 1-.101-1.845V11.488a.098.098 0 0 1 .097-.097h4.611a.093.093 0 0 1 .093.092v23.96c0 .72.055 1.28.165 1.681.608 2.208 3.11 1.74 4.788 1.543Zm-29.09-14.759a.03.03 0 0 0 .018.028.03.03 0 0 0 .017.002.03.03 0 0 0 .016-.009c1.791-1.785 3.898-2.667 6.32-2.643 5.424.052 9.045 4.418 9.577 9.503.438 4.184-1.098 8.52-4.693 10.844-1.614 1.043-3.416 1.52-5.403 1.43-2.352-.106-4.356-1.053-6.013-2.842a.063.063 0 0 0-.097.004.062.062 0 0 0-.012.034l-.15 2.384a.071.071 0 0 1-.072.068h-4.142a.087.087 0 0 1-.06-.025.084.084 0 0 1-.026-.06V11.5a.079.079 0 0 1 .079-.08h4.592c.013 0 .025.006.034.016a.05.05 0 0 1 .015.035v12.436Zm-.027 8.219c-.007 1.226-.105 1.821.198 2.667 1.8 5.042 8.353 5.39 10.54.47a7.56 7.56 0 0 0 .644-3.066 7.569 7.569 0 0 0-.605-3.075c-2.127-4.946-8.684-4.679-10.546.34-.313.843-.223 1.439-.23 2.664Z"/></g><defs><clipPath id="a"><path fill="#fff" d="M.532 0h48v48h-48z"/></clipPath><clipPath id="b"><path fill="#fff" d="M60.532 8h105v40h-105z"/></clipPath></defs></svg>