<svg width="440" height="220" viewBox="0 0 440 220" fill="none" xmlns="http://www.w3.org/2000/svg">
<path d="M215.128 151.18C208.913 151.18 204.154 149.41 200.85 145.87C197.625 142.33 196.012 137.335 196.012 130.884V86.516C196.012 80.0653 197.625 75.07 200.85 71.53C204.154 67.99 208.913 66.22 215.128 66.22C221.343 66.22 226.063 67.99 229.288 71.53C232.592 75.07 234.244 80.0653 234.244 86.516V95.248H221.972V85.69C221.972 80.5767 219.809 78.02 215.482 78.02C211.155 78.02 208.992 80.5767 208.992 85.69V131.828C208.992 136.863 211.155 139.38 215.482 139.38C219.809 139.38 221.972 136.863 221.972 131.828V119.202H234.244V130.884C234.244 137.335 232.592 142.33 229.288 145.87C226.063 149.41 221.343 151.18 215.128 151.18ZM242.01 67.4H261.244C267.931 67.4 272.808 68.9733 275.876 72.12C278.944 75.188 280.478 79.9473 280.478 86.398V91.472C280.478 100.047 277.646 105.475 271.982 107.756V107.992C275.129 108.936 277.331 110.863 278.59 113.774C279.927 116.685 280.596 120.579 280.596 125.456V139.97C280.596 142.33 280.675 144.257 280.832 145.752C280.989 147.168 281.383 148.584 282.012 150H268.796C268.324 148.663 268.009 147.404 267.852 146.224C267.695 145.044 267.616 142.92 267.616 139.852V124.748C267.616 120.972 266.987 118.337 265.728 116.842C264.548 115.347 262.463 114.6 259.474 114.6H254.99V150H242.01V67.4ZM259.71 102.8C262.306 102.8 264.233 102.131 265.492 100.794C266.829 99.4567 267.498 97.2147 267.498 94.068V87.696C267.498 84.7067 266.947 82.5433 265.846 81.206C264.823 79.8687 263.171 79.2 260.89 79.2H254.99V102.8H259.71ZM289.602 67.4H325.002V79.2H302.582V101.03H320.4V112.83H302.582V138.2H325.002V150H289.602V67.4ZM332.469 67.4H352.293C358.744 67.4 363.582 69.1307 366.807 72.592C370.032 76.0533 371.645 81.1273 371.645 87.814V129.586C371.645 136.273 370.032 141.347 366.807 144.808C363.582 148.269 358.744 150 352.293 150H332.469V67.4ZM352.057 138.2C354.181 138.2 355.794 137.571 356.895 136.312C358.075 135.053 358.665 133.008 358.665 130.176V87.224C358.665 84.392 358.075 82.3467 356.895 81.088C355.794 79.8293 354.181 79.2 352.057 79.2H345.449V138.2H352.057Z" fill="white"/>
<path fill-rule="evenodd" clip-rule="evenodd" d="M61 110L111.676 28L162.352 110L111.676 192L61 110ZM86.338 110L111.676 68.9994L137.014 110L111.676 151.001L86.338 110V110Z" fill="#5D78FF"/>
</svg>
