<svg xmlns="http://www.w3.org/2000/svg" width="1474" height="428" fill="none"><g filter="url(#a)"><g clip-path="url(#b)"><mask id="c" width="296" height="424" x="-3" y="1" maskUnits="userSpaceOnUse" style="mask-type:luminance"><path fill="#fff" d="M292.481 1H-3v423.257h295.481V1Z" style="fill:#fff;fill-opacity:1"/></mask><g fill="#E4E4E4" mask="url(#c)"><path d="m291.561 280.713-.011-.016h.007l.004.016Zm-6.193-17.446-41.794-50.125 11.81-131.773 29.984 181.898Z" opacity=".7" style="fill:#e4e4e4;fill:color(display-p3 .8947 .8947 .8947);fill-opacity:1"/><path d="M250.095 52.805 236.541 204.07 138.215 75.63l4.452-70.716 107.428 47.891Z" opacity=".8" style="fill:#e4e4e4;fill:color(display-p3 .8947 .8947 .8947);fill-opacity:1"/><path d="M130.408 75.424 25.488 214.868 134.131 16.342l-3.723 59.082Z" style="fill:#e4e4e4;fill:color(display-p3 .8947 .8947 .8947);fill-opacity:1"/><path d="M234.82 214.56 99.217 414.894.937 260.619 134.345 83.314 234.82 214.56Z" opacity=".95" style="fill:#e4e4e4;fill:color(display-p3 .8947 .8947 .8947);fill-opacity:1"/><path d="M230.635 425.213H103.566L240.41 219.948l44.963 54.738-54.738 150.527Z" opacity=".9" style="fill:#e4e4e4;fill:color(display-p3 .8947 .8947 .8947);fill-opacity:1"/></g><path fill="#E4E4E4" d="M522.496 193.87c-1.529-15.724-7.319-27.518-17.363-35.381-10.049-8.08-22.388-12.121-37.019-12.121-5.024 0-10.376.655-16.053 1.966-5.458 1.092-10.592 2.948-15.397 5.569-4.586 2.621-8.41 6.006-11.468 10.156-3.057 4.149-4.586 9.173-4.586 15.07 0 5.46 1.095 10.155 3.277 14.086 2.185 3.932 5.243 7.426 9.172 10.484 3.933 2.839 8.41 5.241 13.434 7.207 5.239 1.965 10.811 3.712 16.707 5.241l23.912 6.225a314.768 314.768 0 0 1 27.85 8.517c9.391 3.276 17.688 7.426 24.897 12.449 7.206 5.023 12.993 11.248 17.36 18.674 4.586 7.425 6.881 16.488 6.881 27.19 0 10.92-2.51 20.53-7.534 28.829-5.024 8.081-11.686 14.851-19.983 20.311-8.082 5.46-17.473 9.5-28.174 12.122-10.482 2.62-21.187 3.931-32.107 3.931-26.427 0-48.158-6.553-65.193-19.656-16.816-13.104-27.08-31.669-30.793-55.692h37.346c.657 7.425 2.186 14.523 4.586 21.294 2.624 6.77 6.334 12.776 11.139 18.018 4.806 5.241 10.811 9.5 18.017 12.776 7.21 3.058 15.835 4.586 25.883 4.586 5.896 0 11.901-.655 18.016-1.965 6.334-1.529 12.011-3.822 17.035-6.88 5.243-3.276 9.501-7.316 12.778-12.121 3.276-5.023 4.914-11.138 4.914-18.346 0-6.333-1.419-11.684-4.258-16.052-2.842-4.368-6.662-8.081-11.467-11.139-4.805-3.276-10.373-5.896-16.707-7.862-6.334-2.184-12.996-4.15-19.983-5.897l-27.521-7.207a177.25 177.25 0 0 1-23.588-8.19c-7.644-3.494-14.411-7.753-20.307-12.776-5.9-5.242-10.596-11.248-14.087-18.018-3.497-6.989-5.244-15.07-5.244-24.243 0-10.046 2.403-18.673 7.206-25.88 4.805-7.207 11.139-13.104 19.002-17.691 8.082-4.804 17.144-8.299 27.193-10.483 10.263-2.184 20.745-3.276 31.446-3.276 12.234 0 23.369 1.747 33.418 5.242 10.044 3.494 18.782 8.299 26.207 14.414 7.425 5.897 13.43 12.886 18.016 20.967 4.806 8.08 7.973 16.598 9.501 25.552h-36.361Zm134.263 142.834c10.044 0 18.454-3.167 25.222-9.5 6.991-6.552 11.03-15.616 12.125-27.191h34.07c-1.748 9.391-4.915 17.472-9.501 24.242a63.247 63.247 0 0 1-17.035 17.036c-6.553 4.367-13.868 7.643-21.95 9.828-8.082 2.184-16.492 3.276-25.226 3.276-11.577 0-22.278-1.966-32.104-5.897-9.61-3.932-17.91-9.501-24.897-16.708-6.991-7.207-12.449-15.943-16.382-26.208-3.93-10.265-5.896-21.84-5.896-34.725 0-12.012 1.747-23.042 5.243-33.088 3.71-10.265 8.953-19.11 15.725-26.536 6.768-7.425 14.959-13.213 24.569-17.363 9.826-4.368 20.855-6.552 33.085-6.552 10.705 0 20.64 1.748 29.812 5.242 9.392 3.276 17.473 8.408 24.245 15.397 6.768 6.989 12.011 15.834 15.725 26.536 3.711 10.702 5.459 23.369 5.24 38.002H611.874c.219 19.656 4.153 35.271 11.796 46.847 7.644 11.575 18.674 17.362 33.089 17.362Zm-3.276-132.351c-5.681 0-11.03.983-16.054 2.949-4.805 1.747-9.063 4.696-12.777 8.845-3.711 3.931-6.768 9.064-9.173 15.398-2.181 6.333-3.386 13.977-3.605 22.932h79.936c.219-9.173-.656-16.926-2.619-23.26-1.748-6.334-4.367-11.466-7.863-15.397-3.495-3.932-7.643-6.771-12.449-8.518-4.805-1.966-9.938-2.949-15.396-2.949Zm104.141-77.313h35.056v40.295h-35.056V127.04Zm35.056 102.866v97.953c0 3.931.543 6.552 1.638 7.862 1.31 1.092 3.929 1.857 7.859 2.294l12.777 1.31v11.139h-79.608v-11.139l12.778-1.31c3.933-.437 6.443-1.202 7.534-2.294 1.313-1.31 1.966-3.931 1.966-7.862V212.216c0-3.713-.547-6.115-1.638-7.207-1.091-1.31-3.71-2.184-7.862-2.621l-12.778-1.31v-11.139h57.658l-.324 39.967Zm56.845 70.107c1.09 10.265 4.805 19.001 11.139 26.208 6.552 6.989 16.268 10.483 29.155 10.483 11.577 0 20.531-2.184 26.864-6.552 6.334-4.586 9.501-10.701 9.501-18.345 0-4.587-1.204-8.409-3.605-11.466-2.185-3.276-5.133-6.006-8.844-8.19-3.495-2.184-7.534-3.932-12.124-5.242a147.299 147.299 0 0 0-14.083-3.276l-18.673-3.603c-5.9-1.093-11.796-2.731-17.692-4.915-5.677-2.402-10.811-5.46-15.397-9.173-4.586-3.931-8.301-8.517-11.139-13.759-2.839-5.46-4.258-11.903-4.258-19.328 0-8.081 1.857-14.961 5.568-20.639 3.933-5.897 8.844-10.592 14.744-14.087 6.115-3.713 12.992-6.443 20.636-8.19 7.862-1.747 15.725-2.621 23.587-2.621 17.035 0 31.779 4.15 44.228 12.449 12.668 8.081 20.531 20.093 23.588 36.036h-32.76c-.219-4.368-1.419-8.408-3.605-12.121-1.967-3.931-4.586-7.207-7.863-9.828-3.276-2.839-7.205-5.023-11.792-6.552-4.371-1.529-9.172-2.293-14.415-2.293-3.058 0-6.553.327-10.482.983a37.8 37.8 0 0 0-10.811 2.948c-3.495 1.529-6.443 3.713-8.848 6.552-2.401 2.621-3.601 6.006-3.601 10.156 0 7.207 2.729 12.885 8.187 17.035 5.462 3.931 13.216 6.88 23.26 8.845l18.673 3.604c7.429 1.529 14.525 3.385 21.297 5.569 6.987 2.184 13.102 5.241 18.345 9.173 5.243 3.713 9.391 8.408 12.449 14.086 3.057 5.679 4.586 12.668 4.586 20.967 0 8.954-1.857 16.599-5.568 22.932-3.714 6.334-8.738 11.466-15.072 15.397-6.334 3.932-13.649 6.771-21.95 8.518-8.296 1.747-17.035 2.621-26.207 2.621-9.392 0-18.236-1.202-26.536-3.604-8.082-2.402-15.288-5.897-21.622-10.483-6.114-4.587-11.139-10.265-15.068-17.036-3.714-6.77-5.896-14.523-6.553-23.259h32.761Zm168.725-83.211h.33c4.59-8.735 10.7-15.834 18.35-21.294 7.86-5.46 17.69-8.19 29.48-8.19 12.89 0 22.61 3.167 29.16 9.501 6.77 6.115 11.46 13.432 14.09 21.949 4.36-9.391 10.81-16.926 19.32-22.604 8.74-5.897 19.11-8.846 31.12-8.846 9.61 0 17.37 1.748 23.26 5.242 6.12 3.276 10.81 7.644 14.09 13.104 3.28 5.46 5.46 11.685 6.55 18.673 1.09 6.771 1.64 13.65 1.64 20.639v82.883c0 3.931.55 6.552 1.64 7.862 1.31 1.092 3.93 1.857 7.86 2.294l12.78 1.31v11.139h-79.61v-11.139l12.78-1.31c3.93-.437 6.44-1.202 7.53-2.294 1.31-1.31 1.97-3.931 1.97-7.862V256.77c0-17.254-1.86-29.484-5.57-36.692-3.72-7.425-10.37-11.138-19.98-11.138-11.36 0-19.66 4.259-24.9 12.777-5.24 8.517-7.86 19.328-7.86 32.432v73.71c0 3.931.54 6.552 1.63 7.862 1.31 1.092 3.93 1.857 7.87 2.294l12.77 1.31v11.139h-79.6v-11.139l12.77-1.31c3.93-.437 6.44-1.202 7.54-2.294 1.31-1.31 1.96-3.931 1.96-7.862V256.77c0-17.254-1.96-29.484-5.9-36.692-3.71-7.425-10.37-11.138-19.98-11.138-11.14 0-19.43 4.259-24.9 12.777-5.24 8.517-7.86 19.328-7.86 32.432v73.71c0 3.931.55 6.552 1.64 7.862 1.31 1.092 3.93 1.857 7.86 2.294l12.78 1.31v11.139h-79.609v-11.139l12.778-1.31c3.929-.437 6.443-1.202 7.534-2.294 1.31-1.31 1.966-3.931 1.966-7.862V212.216c0-3.713-.547-6.115-1.638-7.207-1.094-1.31-3.714-2.184-7.862-2.621l-12.778-1.31v-11.139h56.999v26.863Zm231.63-89.762h35.06v40.295h-35.06V127.04Zm35.06 102.866v97.953c0 3.931.54 6.552 1.64 7.862 1.3 1.092 3.92 1.857 7.86 2.294l12.77 1.31v11.139h-79.6v-11.139l12.77-1.31c3.93-.437 6.44-1.202 7.54-2.294 1.31-1.31 1.96-3.931 1.96-7.862V212.216c0-3.713-.54-6.115-1.64-7.207-1.09-1.31-3.71-2.184-7.86-2.621l-12.77-1.31v-11.139h57.66l-.33 39.967Zm24.41 40.951c0-12.668 1.86-24.134 5.57-34.398 3.93-10.484 9.39-19.329 16.38-26.536 6.99-7.207 15.29-12.776 24.9-16.708 9.61-3.931 20.2-5.897 31.77-5.897 8.3 0 16.38 1.092 24.25 3.276 8.08 1.966 15.39 5.242 21.95 9.829 6.55 4.368 12.12 10.046 16.7 17.035 4.59 6.988 7.76 15.288 9.5 24.897h-34.07c-.21-6.988-1.52-12.885-3.93-17.69-2.4-4.805-5.46-8.627-9.17-11.466-3.5-3.058-7.32-5.132-11.47-6.224-4.15-1.311-8.19-1.966-12.12-1.966-13.98 0-24.57 6.006-31.77 18.018-7 11.793-10.49 27.737-10.49 47.83 0 20.092 3.49 36.145 10.49 48.157 6.98 11.793 17.68 17.69 32.1 17.69 3.93 0 7.97-.546 12.12-1.638 4.15-1.31 7.97-3.385 11.47-6.224 3.49-3.058 6.44-6.989 8.84-11.794 2.41-4.805 3.72-10.702 3.93-17.69h34.07c-1.74 9.609-4.91 17.909-9.5 24.897-4.58 6.989-10.15 12.777-16.7 17.363-6.56 4.368-13.87 7.535-21.95 9.501-7.87 2.184-15.95 3.276-24.25 3.276-11.57 0-22.16-1.966-31.77-5.897-9.61-3.932-17.91-9.501-24.9-16.708-6.99-7.207-12.45-15.943-16.38-26.208-3.71-10.265-5.57-21.84-5.57-34.725Z" style="fill:#e4e4e4;fill:color(display-p3 .8947 .8947 .8947);fill-opacity:1"/></g></g><defs><clipPath id="b"><path fill="#fff" d="M0 0h1474v426.17H0z" style="fill:#fff;fill-opacity:1" transform="translate(0 1)"/></clipPath><filter id="a" width="1474" height="470.947" x="0" y="1" color-interpolation-filters="sRGB" filterUnits="userSpaceOnUse"><feFlood flood-opacity="0" result="BackgroundImageFix"/><feBlend in="SourceGraphic" in2="BackgroundImageFix" result="shape"/><feColorMatrix in="SourceAlpha" result="hardAlpha" values="0 0 0 0 0 0 0 0 0 0 0 0 0 0 0 0 0 0 127 0"/><feOffset dy="44.777"/><feGaussianBlur stdDeviation="22.389"/><feComposite in2="hardAlpha" k2="-1" k3="1" operator="arithmetic"/><feColorMatrix values="0 0 0 0 0 0 0 0 0 0 0 0 0 0 0 0 0 0 0.05 0"/><feBlend in2="shape" result="effect1_innerShadow_10272_21"/></filter></defs></svg>