<svg xmlns="http://www.w3.org/2000/svg" width="293" height="74" fill="none"><path fill="#151E1C" d="M121.616 25.483c-1.02 0-1.84-.786-2.196-1.742-.463-1.241-1.278-2.261-2.444-3.06-1.657-1.146-3.813-1.719-6.467-1.719-1.866 0-3.467.275-4.802.824-1.336.55-2.357 1.295-3.065 2.237-.708.941-1.07 2.016-1.086 3.225 0 1.004.233 1.875.7 2.613.483.737 1.134 1.365 1.955 1.883.82.502 1.729.926 2.726 1.271a29.92 29.92 0 0 0 3.017.871l4.633 1.13a32.47 32.47 0 0 1 5.381 1.719c1.738.721 3.29 1.632 4.658 2.73a12.176 12.176 0 0 1 3.281 3.979c.805 1.553 1.207 3.374 1.207 5.461 0 2.825-.74 5.312-2.22 7.462-1.48 2.135-3.62 3.806-6.419 5.014-2.783 1.193-6.153 1.79-10.111 1.79-3.845 0-7.183-.581-10.014-1.742-2.816-1.162-5.02-2.857-6.612-5.085-1.225-1.731-2.013-3.755-2.364-6.073-.17-1.123.752-2.072 1.888-2.072h4.873c1.045 0 1.881.818 2.182 1.82a6.614 6.614 0 0 0 1.263 2.37c.933 1.114 2.148 1.946 3.644 2.495 1.512.55 3.201.824 5.068.824 1.946 0 3.651-.282 5.115-.847 1.48-.581 2.639-1.381 3.475-2.401.837-1.036 1.263-2.245 1.279-3.626-.016-1.255-.394-2.29-1.134-3.107-.74-.832-1.778-1.522-3.113-2.071-1.319-.566-2.863-1.068-4.633-1.507l-5.623-1.413c-4.07-1.02-7.287-2.566-9.652-4.637-2.349-2.087-3.523-4.857-3.523-8.31 0-2.84.788-5.328 2.365-7.462 1.592-2.134 3.756-3.79 6.491-4.967 2.735-1.193 5.832-1.79 9.29-1.79 3.508 0 6.58.597 9.219 1.79 2.654 1.177 4.737 2.817 6.25 4.92a12.08 12.08 0 0 1 2.159 5.177c.183 1.104-.736 2.026-1.855 2.026h-4.786ZM135.651 74a2 2 0 0 1-2-2V26.283a2 2 0 0 1 2-2h4.591a2 2 0 0 1 2 2v3.979h.507c.45-.879 1.086-1.813 1.906-2.801.821-1.005 1.931-1.86 3.33-2.566 1.4-.722 3.186-1.083 5.357-1.083 2.864 0 5.446.714 7.747 2.142 2.316 1.412 4.15 3.508 5.501 6.285 1.368 2.762 2.052 6.152 2.052 10.17 0 3.97-.668 7.344-2.003 10.122-1.336 2.778-3.153 4.897-5.454 6.356-2.3 1.46-4.907 2.19-7.818 2.19-2.124 0-3.886-.346-5.285-1.036-1.4-.691-2.526-1.523-3.379-2.496-.836-.988-1.488-1.922-1.954-2.801h-.362V72a2 2 0 0 1-2 2h-4.736Zm6.567-31.638c0 2.338.338 4.386 1.013 6.144.692 1.757 1.682 3.13 2.969 4.12 1.303.972 2.879 1.459 4.729 1.459 1.931 0 3.548-.502 4.851-1.507 1.303-1.02 2.284-2.409 2.944-4.166.675-1.774 1.013-3.79 1.013-6.05 0-2.245-.33-4.238-.989-5.98-.66-1.742-1.641-3.107-2.944-4.096-1.303-.988-2.928-1.483-4.875-1.483-1.866 0-3.45.479-4.754 1.436-1.303.958-2.292 2.3-2.968 4.026-.659 1.726-.989 3.758-.989 6.097Zm47.256 18.785c-3.717 0-6.926-.753-9.629-2.26-2.686-1.522-4.754-3.672-6.201-6.45-1.448-2.793-2.172-6.081-2.172-9.863 0-3.72.724-6.984 2.172-9.793 1.464-2.825 3.507-5.022 6.129-6.592 2.622-1.585 5.703-2.377 9.242-2.377 2.285 0 4.44.36 6.467 1.083a14.682 14.682 0 0 1 5.406 3.295c1.576 1.491 2.815 3.39 3.716 5.697.901 2.291 1.351 5.022 1.351 8.192v2.613h-30.381v-5.744h22.008c-.016-1.632-.378-3.084-1.086-4.355a7.79 7.79 0 0 0-2.968-3.036c-1.255-.738-2.719-1.107-4.392-1.107-1.786 0-3.354.424-4.706 1.271a8.852 8.852 0 0 0-3.161 3.296c-.74 1.35-1.118 2.833-1.134 4.45v5.013c0 2.103.394 3.908 1.182 5.415.789 1.49 1.891 2.636 3.306 3.436 1.416.785 3.073 1.177 4.971 1.177 1.271 0 2.421-.172 3.451-.517a7.69 7.69 0 0 0 2.679-1.578 6.287 6.287 0 0 0 1.013-1.187c.503-.76 1.333-1.309 2.24-1.21l4.349.477c1.201.132 2.025 1.301 1.535 2.405a12.234 12.234 0 0 1-2.212 3.352c-1.432 1.554-3.265 2.763-5.502 3.626-2.236.847-4.794 1.27-7.673 1.27Zm36.981 0c-3.7 0-6.877-.793-9.531-2.378-2.639-1.585-4.674-3.774-6.106-6.567-1.415-2.81-2.123-6.042-2.123-9.7 0-3.671.724-6.912 2.172-9.721 1.448-2.825 3.491-5.022 6.129-6.592 2.654-1.585 5.792-2.377 9.411-2.377 3.009 0 5.671.541 7.988 1.624 2.332 1.067 4.19 2.582 5.574 4.543a12.694 12.694 0 0 1 2.058 4.697c.249 1.136-.684 2.13-1.847 2.13h-4.546c-.958 0-1.754-.693-2.116-1.58a7.635 7.635 0 0 0-1.947-2.775c-1.255-1.177-2.936-1.765-5.043-1.765-1.786 0-3.354.47-4.706 1.412-1.351.926-2.405 2.26-3.161 4.002-.74 1.742-1.11 3.83-1.11 6.262 0 2.464.37 4.582 1.11 6.356.74 1.757 1.778 3.115 3.113 4.072 1.351.942 2.936 1.413 4.754 1.413 1.287 0 2.437-.236 3.451-.707a6.91 6.91 0 0 0 2.582-2.095 7.232 7.232 0 0 0 .969-1.742c.349-.889 1.143-1.577 2.098-1.577h4.536c1.168 0 2.103 1.004 1.848 2.145a13.525 13.525 0 0 1-1.995 4.658c-1.335 1.962-3.153 3.5-5.453 4.614-2.301 1.099-5.004 1.648-8.109 1.648Zm21.994-.707a2 2 0 0 1-2-2V26.284a2 2 0 0 1 2-2h4.735a2 2 0 0 1 2 2V58.44a2 2 0 0 1-2 2h-4.735Zm2.392-41.29c-1.384 0-2.574-.447-3.572-1.341-.997-.91-1.496-2-1.496-3.272 0-1.287.499-2.378 1.496-3.272.998-.91 2.188-1.366 3.572-1.366 1.399 0 2.59.456 3.571 1.366.998.894 1.496 1.985 1.496 3.272 0 1.271-.498 2.362-1.496 3.272-.981.894-2.172 1.342-3.571 1.342Zm25.678 41.997c-3.716 0-6.925-.753-9.628-2.26-2.687-1.522-4.754-3.672-6.202-6.45-1.448-2.793-2.172-6.081-2.172-9.863 0-3.72.724-6.984 2.172-9.793 1.464-2.825 3.507-5.022 6.129-6.592 2.623-1.585 5.703-2.377 9.243-2.377 2.284 0 4.44.36 6.467 1.083a14.67 14.67 0 0 1 5.405 3.295c1.577 1.491 2.816 3.39 3.717 5.697.9 2.291 1.351 5.022 1.351 8.192v.613a2 2 0 0 1-2 2H262.62v-5.744h22.007c-.016-1.632-.378-3.084-1.086-4.355a7.782 7.782 0 0 0-2.968-3.036c-1.255-.738-2.719-1.107-4.392-1.107-1.785 0-3.354.424-4.705 1.271a8.844 8.844 0 0 0-3.161 3.296c-.74 1.35-1.118 2.833-1.135 4.45v5.013c0 2.103.395 3.908 1.183 5.415.788 1.49 1.89 2.636 3.306 3.436 1.416.785 3.073 1.177 4.971 1.177 1.271 0 2.421-.172 3.451-.517a7.696 7.696 0 0 0 2.678-1.578 6.329 6.329 0 0 0 1.014-1.187c.503-.76 1.333-1.309 2.24-1.21l4.349.477c1.201.132 2.025 1.301 1.534 2.405a12.253 12.253 0 0 1-2.211 3.352c-1.432 1.554-3.266 2.763-5.502 3.626-2.236.847-4.794 1.27-7.674 1.27Z"/><ellipse cx="39.73" cy="10.301" fill="#425E58" rx="39.73" ry="10.301" transform="matrix(.8713 -.49073 .50932 .86057 1.15 38.994)"/><path fill="#425E58" d="M69.45 30.836c.066.087.129.175.184.268C72.53 36 59.382 48.698 40.264 59.466 21.145 70.234 3.297 74.994.399 70.098c-1.761-2.978 2.415-8.84 10.258-15.4 3.395 4.444 20.926-.336 39.682-10.9 7.49-4.218 14.06-8.736 19.111-12.962Z"/></svg>